<svg xmlns="http://www.w3.org/2000/svg" xmlns:xlink="http://www.w3.org/1999/xlink" width="25.121" height="28.055" viewBox="0 0 25.121 28.055"><defs><style>.a{fill:url(#a);}.b{fill:url(#b);}.c{fill:url(#c);}.d{fill:url(#d);}.e{opacity:0.2;}.e,.f,.g{isolation:isolate;}.f{opacity:0.12;}.g{fill:#fff;opacity:0.25;}</style><linearGradient id="a" x1="2.976" y1="1.679" x2="2.906" y2="1.715" gradientUnits="objectBoundingBox"><stop offset="0" stop-color="#00a0ff"/><stop offset="0.007" stop-color="#00a1ff"/><stop offset="0.26" stop-color="#00beff"/><stop offset="0.512" stop-color="#00d2ff"/><stop offset="0.76" stop-color="#00dfff"/><stop offset="1" stop-color="#00e3ff"/></linearGradient><linearGradient id="b" x1="2.604" y1="4.034" x2="2.476" y2="4.034" gradientUnits="objectBoundingBox"><stop offset="0" stop-color="#ffe000"/><stop offset="0.409" stop-color="#ffbd00"/><stop offset="0.775" stop-color="orange"/><stop offset="1" stop-color="#ff9c00"/></linearGradient><linearGradient id="c" x1="2.302" y1="2.344" x2="2.229" y2="2.439" gradientUnits="objectBoundingBox"><stop offset="0" stop-color="#ff3a44"/><stop offset="1" stop-color="#c31162"/></linearGradient><linearGradient id="d" x1="2.246" y1="3.262" x2="2.278" y2="3.305" gradientUnits="objectBoundingBox"><stop offset="0" stop-color="#32a071"/><stop offset="0.069" stop-color="#2da771"/><stop offset="0.476" stop-color="#15cf74"/><stop offset="0.801" stop-color="#06e775"/><stop offset="1" stop-color="#00f076"/></linearGradient></defs><g transform="translate(0 0)"><path class="a" d="M185.621,139.019a2.13,2.13,0,0,0-.436,1.526v24.086a2.157,2.157,0,0,0,.545,1.526l.109.109,13.514-13.514v-.218Z" transform="translate(-185.185 -138.634)"/><path class="b" d="M428.542,301.986l-4.468-4.469v-.327l4.468-4.468.109.109,5.34,3.052c1.526.872,1.526,2.289,0,3.161Z" transform="translate(-410.015 -283.292)"/><path class="c" d="M210.794,375.078l-4.577-4.577-13.623,13.623c.545.545,1.308.545,2.289.109l15.912-9.155" transform="translate(-192.157 -356.492)"/><path class="d" d="M210.794,142.335l-15.912-9.046a1.766,1.766,0,0,0-2.289.109l13.623,13.514,4.577-4.578Z" transform="translate(-192.157 -132.905)"/><path class="e" d="M210.685,446.426l-15.8,8.937a1.782,1.782,0,0,1-2.18,0l-.109.109.109.109a1.782,1.782,0,0,0,2.18,0Z" transform="translate(-192.157 -427.95)"/><path class="f" d="M185.621,383.906a2.131,2.131,0,0,1-.436-1.526v.109a2.157,2.157,0,0,0,.545,1.526v-.109Zm23.541-11.989-5.449,3.052.109.109,5.34-3.052a1.812,1.812,0,0,0,1.09-1.526C210.252,371.045,209.816,371.481,209.162,371.917Z" transform="translate(-185.185 -356.492)"/><path class="g" d="M187.91,132.979l21.252,12.1c.654.436,1.09.872,1.09,1.417a1.812,1.812,0,0,0-1.09-1.526l-21.252-12.1c-1.526-.872-2.725-.218-2.725,1.526v.109C185.185,132.87,186.384,132.107,187.91,132.979Z" transform="translate(-185.185 -132.485)"/></g></svg>