<svg xmlns="http://www.w3.org/2000/svg" width="21.21" height="26.063" viewBox="0 0 21.21 26.063"><defs><style>.a{fill:#fff;}</style></defs><path class="a" d="M254.793,129.083a5.922,5.922,0,0,1,2.821-4.969,6.068,6.068,0,0,0-4.778-2.583c-2.01-.212-3.96,1.2-4.984,1.2-1.044,0-2.621-1.182-4.32-1.147a6.362,6.362,0,0,0-5.355,3.265c-2.316,4.008-.589,9.9,1.63,13.137,1.11,1.588,2.406,3.358,4.1,3.3,1.661-.067,2.281-1.057,4.285-1.057,1.985,0,2.568,1.057,4.3,1.018,1.782-.028,2.9-1.594,3.975-3.195a13.1,13.1,0,0,0,1.818-3.7,5.73,5.73,0,0,1-3.495-5.265Zm-3.27-9.683a5.828,5.828,0,0,0,1.335-4.177,5.94,5.94,0,0,0-3.84,1.986,5.547,5.547,0,0,0-1.369,4.023,4.906,4.906,0,0,0,3.875-1.832Z" transform="translate(-237.078 -115.223)"/></svg>